<?xml version="1.0" encoding="UTF-8" standalone="no"?>
<!-- Created with Inkscape (http://www.inkscape.org/) -->

<svg
   xmlns:osb="http://www.openswatchbook.org/uri/2009/osb"
   xmlns:dc="http://purl.org/dc/elements/1.1/"
   xmlns:cc="http://creativecommons.org/ns#"
   xmlns:rdf="http://www.w3.org/1999/02/22-rdf-syntax-ns#"
   xmlns:svg="http://www.w3.org/2000/svg"
   xmlns="http://www.w3.org/2000/svg"
   xmlns:xlink="http://www.w3.org/1999/xlink"
   xmlns:sodipodi="http://sodipodi.sourceforge.net/DTD/sodipodi-0.dtd"
   xmlns:inkscape="http://www.inkscape.org/namespaces/inkscape"
   id="svg2"
   height="45"
   width="300"
   version="1.1"
   inkscape:version="0.92.3 (2405546, 2018-03-11)"
   sodipodi:docname="logo-big1.svg">
  <defs
     id="defs8">
    <linearGradient
       id="linearGradient5465"
       osb:paint="solid">
      <stop
         style="stop-color:#3498db;stop-opacity:0.93650794;"
         offset="0"
         id="stop5463" />
    </linearGradient>
    <linearGradient
       inkscape:collect="always"
       xlink:href="#linearGradient5465"
       id="linearGradient5467"
       x1="86.3"
       y1="22.6"
       x2="246.9"
       y2="22.6"
       gradientUnits="userSpaceOnUse" />
  </defs>
  <sodipodi:namedview
     pagecolor="#ffffff"
     bordercolor="#666666"
     borderopacity="1"
     objecttolerance="10"
     gridtolerance="10"
     guidetolerance="10"
     inkscape:pageopacity="0"
     inkscape:pageshadow="2"
     inkscape:window-width="1920"
     inkscape:window-height="1017"
     id="namedview6"
     showgrid="true"
     inkscape:snap-bbox="true"
     inkscape:zoom="2.82843"
     inkscape:cx="114.79963"
     inkscape:cy="25.0294"
     inkscape:window-x="-8"
     inkscape:window-y="-8"
     inkscape:window-maximized="1"
     inkscape:current-layer="svg2"
     fit-margin-top="0"
     fit-margin-left="0"
     fit-margin-right="0"
     fit-margin-bottom="0">
    <inkscape:grid
       type="xygrid"
       id="grid2985"
       empspacing="4"
       visible="true"
       enabled="true"
       snapvisiblegridlinesonly="true"
       originx="-11.9998"
       originy="1.9998"
       spacingx="1"
       spacingy="1" />
  </sodipodi:namedview>
  <metadata
     id="metadata7">
    <rdf:RDF>
      <cc:Work
         rdf:about="">
        <dc:format>image/svg+xml</dc:format>
        <dc:type
           rdf:resource="http://purl.org/dc/dcmitype/StillImage" />
        <dc:title></dc:title>
      </cc:Work>
    </rdf:RDF>
  </metadata>
  <g
     style="font-size:40px;font-style:normal;font-weight:normal;line-height:125%;letter-spacing:0px;word-spacing:0px;fill:none;stroke:#3498db;stroke-width:1.55485;stroke-miterlimit:4;stroke-opacity:1;stroke-dasharray:none;font-family:Sans"
     id="text3758"
     transform="matrix(1.30001,0,0,1.27273,57.0775,111.135)">
    <path
       d="M -14.9889,-70.3158 C -14.7062,-70.5985 -14.5648,-70.9333 -14.5648,-71.3202 -14.5648,-71.7071 -14.7062,-72.0419 -14.9889,-72.3247 -15.2716,-72.6074 -15.6065,-72.7488 -15.9933,-72.7488 -18.5529,-72.7488 -20.919,-72.3768 -23.0916,-71.6327 -25.2642,-70.9035 -27.1987,-69.9065 -28.8951,-68.6417 -30.5767,-67.3916 -32.3252,-65.7622 -34.1407,-63.7533 -34.4234,-63.4408 -34.5648,-63.1059 -34.5648,-62.7488 -34.5648,-62.3619 -34.4234,-62.0271 -34.1407,-61.7443 -33.8579,-61.4616 -33.5231,-61.3202 -33.1362,-61.3202 -32.7791,-61.3202 -32.4442,-61.4616 -32.1317,-61.7443 -31.73,-62.1015 -31.1794,-62.6297 -30.4799,-63.3292 -29.7806,-64.0285 -29.282,-64.5196 -28.9844,-64.8024 -26.9457,-66.6476 -24.9517,-67.9571 -23.0023,-68.7309 -21.038,-69.5047 -18.7017,-69.8916 -15.9933,-69.8917 -15.6065,-69.8916 -15.2716,-70.033 -14.9889,-70.3158 M -3.1362,-75.7399 C -3.13624,-74.3262 -3.28505,-72.8901 -3.58263,-71.4318 -4.26719,-68.0985 -5.64368,-65.2488 -7.71209,-62.8827 -9.7657,-60.5166 -12.4219,-58.5226 -15.6808,-56.9006 -18.8654,-55.2934 -22.1243,-54.4899 -25.4576,-54.4899 -27.66,-54.4899 -29.788,-54.8396 -31.8416,-55.539 -32.0648,-55.6134 -32.7195,-55.9259 -33.8058,-56.4765 -34.8922,-57.0271 -35.6064,-57.3024 -35.9487,-57.3024 -36.1868,-57.3024 -36.4844,-57.0643 -36.8416,-56.5881 -37.1838,-56.1119 -37.5186,-55.5911 -37.846,-55.0256 -38.1585,-54.4601 -38.5454,-53.9393 -39.0067,-53.4631 -39.468,-52.9869 -39.9145,-52.7488 -40.346,-52.7488 -40.7925,-52.7488 -41.1719,-52.8306 -41.4844,-52.9943 -41.7969,-53.158 -42.0276,-53.3366 -42.1764,-53.53 -42.3252,-53.7235 -42.5261,-54.036 -42.7791,-54.4675 -42.8088,-54.5271 -42.8535,-54.6089 -42.913,-54.7131 -42.9725,-54.8172 -43.0172,-54.8917 -43.0469,-54.9363 -43.0618,-54.9809 -43.0841,-55.0479 -43.1139,-55.1372 -43.1288,-55.2414 -43.1362,-55.3455 -43.1362,-55.4497 -43.1362,-55.9705 -42.9055,-56.5137 -42.4442,-57.0792 -41.9829,-57.6595 -41.477,-58.1506 -40.9264,-58.5524 -40.3758,-58.9541 -39.8698,-59.3708 -39.4085,-59.8024 -38.9472,-60.2339 -38.7166,-60.5911 -38.7166,-60.8738 -38.7166,-60.9333 -38.8207,-61.2161 -39.0291,-61.722 -39.2374,-62.228 -39.3564,-62.5553 -39.3862,-62.7042 -39.5201,-63.4631 -39.5871,-64.2369 -39.5871,-65.0256 -39.5871,-66.7369 -39.2672,-68.3738 -38.6273,-69.9363 -37.9725,-71.4988 -37.0871,-72.8678 -35.971,-74.0434 -34.8401,-75.2339 -33.5678,-76.2681 -32.1541,-77.1461 -30.7404,-78.039 -29.2225,-78.7532 -27.6005,-79.289 -26.782,-79.5568 -25.7032,-79.7428 -24.3639,-79.847 -23.0246,-79.966 -21.6928,-80.033 -20.3683,-80.0479 -19.0291,-80.0776 -17.6972,-80.1223 -16.3728,-80.1818 -15.0484,-80.2562 -13.8356,-80.4348 -12.7344,-80.7175 -11.6184,-81.0151 -10.7702,-81.4392 -10.1898,-81.9899 -10.041,-82.1386 -9.82522,-82.3544 -9.54245,-82.6372 -9.24486,-82.9348 -9.02165,-83.1431 -8.87281,-83.2622 -8.72403,-83.3961 -8.52314,-83.5449 -8.27013,-83.7086 -8.01719,-83.8872 -7.74933,-84.0062 -7.46656,-84.0658 -7.16897,-84.1401 -6.84159,-84.1773 -6.48441,-84.1774 -5.90409,-84.1773 -5.38326,-83.8351 -4.92191,-83.1506 -4.44576,-82.466 -4.08862,-81.6327 -3.85049,-80.6506 -3.61243,-79.6684 -3.43386,-78.7458 -3.31477,-77.8827 -3.19576,-77.0196 -3.13624,-76.3053 -3.1362,-75.7399"
       id="path3763"
       inkscape:connector-curvature="0"
       style="fill:none;stroke:#3498db;stroke-width:1.55485;stroke-miterlimit:4;stroke-opacity:1;stroke-dasharray:none" />
  </g>
  <g
     transform="translate(-13.0998,0.4002)"
     id="g4808"
     style="fill-opacity:1;fill:url(#linearGradient5467);">
    <path
       inkscape:connector-curvature="0"
       class="st0"
       d="m 105.3,32 v -0.6 c -0.9,1 -1.7,1.8 -2.5,2.4 -0.8,0.6 -1.7,1.1 -2.7,1.4 -1,0.3 -2,0.5 -3.2,0.5 -1.5,0 -2.9,-0.3 -4.3,-1 -1.4,-0.7 -2.4,-1.6 -3.4,-2.8 -1,-1.2 -1.7,-2.6 -2.2,-4.2 -0.5,-1.6 -0.7,-3.4 -0.7,-5.3 0,-4 1,-7.1 2.9,-9.4 1.9,-2.3 4.5,-3.4 7.7,-3.4 1.8,0 3.4,0.3 4.7,0.9 1.3,0.6 2.5,1.6 3.7,2.9 V 4.1 c 0,-1.3 0.3,-2.3 0.8,-3 0.5,-0.7 1.3,-1 2.2,-1 0.9,0 1.7,0.3 2.2,0.9 0.5,0.6 0.8,1.5 0.8,2.7 V 32 c 0,1.2 -0.3,2.1 -0.8,2.7 -0.5,0.6 -1.3,0.9 -2.2,0.9 -0.9,0 -1.6,-0.3 -2.2,-0.9 -0.6,-0.6 -0.8,-1.5 -0.8,-2.7 z M 92.8,22.6 c 0,1.7 0.3,3.2 0.8,4.4 0.5,1.2 1.3,2.1 2.2,2.8 0.9,0.7 2,0.9 3.1,0.9 1.1,0 2.2,-0.3 3.1,-0.9 0.9,-0.6 1.7,-1.5 2.2,-2.7 0.5,-1.2 0.8,-2.7 0.8,-4.5 0,-1.7 -0.3,-3.2 -0.8,-4.4 -0.5,-1.2 -1.3,-2.2 -2.3,-2.8 -0.9,-0.6 -2,-1 -3.1,-1 -1.2,0 -2.2,0.3 -3.1,1 -0.9,0.7 -1.6,1.6 -2.1,2.9 -0.5,1.3 -0.8,2.7 -0.8,4.3 z"
       id="path4796"
       style="fill-opacity:1;fill:url(#linearGradient5467)" />
    <path
       inkscape:connector-curvature="0"
       class="st0"
       d="m 123.7,36.5 0.6,-1.4 -7.9,-19.8 c -0.5,-1.1 -0.7,-2 -0.7,-2.5 0,-0.5 0.1,-1.1 0.4,-1.5 0.3,-0.4 0.7,-0.8 1.2,-1.1 0.5,-0.3 1,-0.4 1.5,-0.4 0.9,0 1.6,0.3 2.1,0.9 0.5,0.6 0.9,1.4 1.2,2.5 l 5.4,15.8 5.1,-14.6 c 0.4,-1.2 0.8,-2.1 1.1,-2.8 0.3,-0.7 0.7,-1.1 1,-1.4 0.3,-0.3 0.9,-0.4 1.6,-0.4 0.5,0 0.9,0.1 1.4,0.4 0.5,0.3 0.8,0.6 1,1 0.2,0.4 0.4,0.9 0.4,1.4 -0.1,0.3 -0.2,0.7 -0.3,1.3 -0.1,0.6 -0.3,1.1 -0.5,1.7 L 130,37.2 c -0.7,1.9 -1.4,3.4 -2.1,4.5 -0.7,1.1 -1.6,1.9 -2.7,2.5 -1.1,0.6 -2.7,0.9 -4.6,0.9 -1.9,0 -3.3,-0.2 -4.2,-0.6 -0.9,-0.4 -1.4,-1.1 -1.4,-2.2 0,-0.7 0.2,-1.3 0.7,-1.7 0.5,-0.4 1.1,-0.6 2,-0.6 0.3,0 0.7,0 1,0.1 0.4,0.1 0.8,0.1 1.1,0.1 0.7,0 1.3,-0.1 1.7,-0.3 0.4,-0.2 0.8,-0.6 1.1,-1.1 0.3,-0.5 0.7,-1.3 1.1,-2.3 z"
       id="path4798"
       style="fill-opacity:1;fill:url(#linearGradient5467)" />
    <path
       inkscape:connector-curvature="0"
       class="st0"
       d="M 143.8,31.8 V 4 c 0,-1.3 0.3,-2.3 0.9,-2.9 0.6,-0.6 1.3,-1 2.3,-1 1,0 1.8,0.3 2.3,1 0.5,0.7 0.9,1.6 0.9,2.9 v 27.8 c 0,1.3 -0.3,2.3 -0.9,2.9 -0.6,0.6 -1.4,1 -2.3,1 -0.9,0 -1.7,-0.3 -2.3,-1 -0.6,-0.7 -0.9,-1.7 -0.9,-2.9 z"
       id="path4800"
       style="fill-opacity:1;fill:url(#linearGradient5467)" />
    <path
       inkscape:connector-curvature="0"
       class="st0"
       d="m 190.1,23.1 v 8.5 c 0,1.3 -0.3,2.4 -0.9,3 -0.6,0.6 -1.4,1 -2.4,1 -1,0 -1.8,-0.3 -2.4,-1 -0.6,-0.7 -0.9,-1.7 -0.9,-3 V 21.5 c 0,-1.6 -0.1,-2.9 -0.2,-3.8 -0.1,-0.9 -0.4,-1.6 -0.9,-2.2 -0.5,-0.6 -1.3,-0.9 -2.3,-0.9 -2.1,0 -3.5,0.7 -4.1,2.2 -0.6,1.5 -1,3.5 -1,6.2 v 8.6 c 0,1.3 -0.3,2.3 -0.9,3 -0.6,0.7 -1.4,1 -2.4,1 -1,0 -1.8,-0.3 -2.4,-1 -0.6,-0.7 -0.9,-1.7 -0.9,-3 V 13.3 c 0,-1.2 0.3,-2.1 0.8,-2.7 0.5,-0.6 1.3,-0.9 2.2,-0.9 0.9,0 1.6,0.3 2.2,0.9 0.6,0.6 0.9,1.4 0.9,2.4 v 0.6 c 1.1,-1.3 2.3,-2.3 3.6,-2.9 1.3,-0.6 2.7,-0.9 4.2,-0.9 1.6,0 3,0.3 4.1,1 1.1,0.7 2.1,1.6 2.9,2.9 1.1,-1.3 2.2,-2.3 3.5,-2.9 1.3,-0.6 2.6,-0.9 4.1,-0.9 1.8,0 3.3,0.3 4.5,1 1.2,0.7 2.2,1.7 2.8,3 0.5,1.2 0.8,3 0.8,5.5 v 12.5 c 0,1.3 -0.3,2.4 -0.9,3 -0.6,0.6 -1.4,1 -2.4,1 -1,0 -1.8,-0.3 -2.4,-1 -0.6,-0.7 -0.9,-1.7 -0.9,-3 v -11 c 0,-1.4 -0.1,-2.5 -0.2,-3.3 -0.1,-0.8 -0.4,-1.5 -0.9,-2.1 -0.5,-0.6 -1.3,-0.8 -2.3,-0.8 -0.8,0 -1.6,0.3 -2.4,0.8 -0.8,0.5 -1.3,1.2 -1.8,2 -0.5,1 -0.7,2.9 -0.7,5.6 z"
       id="path4802"
       style="fill-opacity:1;fill:url(#linearGradient5467)" />
    <path
       inkscape:connector-curvature="0"
       class="st0"
       d="m 214.5,6.7 c -0.9,0 -1.7,-0.3 -2.3,-0.8 -0.6,-0.5 -0.9,-1.3 -0.9,-2.3 0,-0.9 0.3,-1.7 1,-2.2 0.7,-0.5 1.4,-0.9 2.3,-0.9 0.8,0 1.6,0.3 2.2,0.8 0.6,0.5 1,1.3 1,2.3 0,1 -0.3,1.8 -0.9,2.3 -0.6,0.5 -1.5,0.8 -2.4,0.8 z m 3.2,6.6 v 18.5 c 0,1.3 -0.3,2.3 -0.9,2.9 -0.6,0.6 -1.4,1 -2.3,1 -0.9,0 -1.7,-0.3 -2.3,-1 -0.6,-0.7 -0.9,-1.6 -0.9,-2.9 V 13.5 c 0,-1.3 0.3,-2.2 0.9,-2.9 0.6,-0.7 1.3,-1 2.3,-1 1,0 1.7,0.3 2.3,1 0.6,0.7 0.9,1.6 0.9,2.7 z"
       id="path4804"
       style="fill-opacity:1;fill:url(#linearGradient5467)" />
    <path
       inkscape:connector-curvature="0"
       class="st0"
       d="M 230.1,13.2 V 14 c 1.1,-1.5 2.4,-2.6 3.7,-3.3 1.3,-0.7 2.9,-1 4.6,-1 1.7,0 3.2,0.4 4.5,1.1 1.3,0.7 2.3,1.8 3,3.1 0.4,0.8 0.7,1.6 0.8,2.5 0.1,0.9 0.2,2.1 0.2,3.5 v 11.9 c 0,1.3 -0.3,2.3 -0.9,2.9 -0.6,0.6 -1.3,1 -2.3,1 -1,0 -1.7,-0.3 -2.3,-1 -0.6,-0.7 -0.9,-1.6 -0.9,-2.9 V 21.1 c 0,-2.1 -0.3,-3.7 -0.9,-4.8 -0.6,-1.1 -1.8,-1.7 -3.5,-1.7 -1.1,0 -2.2,0.3 -3.1,1 -0.9,0.7 -1.6,1.6 -2.1,2.8 -0.3,1 -0.5,2.7 -0.5,5.3 v 8 c 0,1.3 -0.3,2.3 -0.9,2.9 -0.6,0.6 -1.4,1 -2.3,1 -0.9,0 -1.7,-0.3 -2.3,-1 C 224.3,33.9 224,33 224,31.7 V 13.3 c 0,-1.2 0.3,-2.1 0.8,-2.7 0.5,-0.6 1.3,-0.9 2.2,-0.9 0.6,0 1.1,0.1 1.5,0.4 0.4,0.3 0.8,0.7 1.1,1.2 0.3,0.5 0.5,1.1 0.5,1.9 z"
       id="path4806"
       style="fill-opacity:1;fill:url(#linearGradient5467)" />
  </g>
</svg>
